<svg width="20" height="20" viewBox="0 0 20 20" fill="none" xmlns="http://www.w3.org/2000/svg">
<path d="M12.5 11.6667C10.275 11.6667 5.83331 12.775 5.83331 15V16.6667H19.1666V15C19.1666 12.775 14.725 11.6667 12.5 11.6667ZM4.99998 8.33337V5.83337H3.33331V8.33337H0.833313V10H3.33331V12.5H4.99998V10H7.49998V8.33337M12.5 10C13.384 10 14.2319 9.64885 14.857 9.02373C15.4821 8.39861 15.8333 7.55076 15.8333 6.66671C15.8333 5.78265 15.4821 4.93481 14.857 4.30968C14.2319 3.68456 13.384 3.33337 12.5 3.33337C11.6159 3.33337 10.7681 3.68456 10.143 4.30968C9.51784 4.93481 9.16665 5.78265 9.16665 6.66671C9.16665 7.55076 9.51784 8.39861 10.143 9.02373C10.7681 9.64885 11.6159 10 12.5 10Z" fill="white"/>
</svg>
