<svg width="20" height="20" viewBox="0 0 20 20" fill="none" xmlns="http://www.w3.org/2000/svg">
<path d="M9.99166 11.5833V8.48329H17.7917C17.9083 9.00829 18 9.49996 18 10.1916C18 14.95 14.8083 18.3333 9.99999 18.3333C5.39999 18.3333 1.66666 14.6 1.66666 9.99996C1.66666 5.39996 5.39999 1.66663 9.99999 1.66663C12.25 1.66663 14.1333 2.49163 15.575 3.84163L13.2083 6.14163C12.6083 5.57496 11.5583 4.90829 9.99999 4.90829C7.24166 4.90829 4.99166 7.19996 4.99166 10.0083C4.99166 12.8166 7.24166 15.1083 9.99999 15.1083C13.1917 15.1083 14.3667 12.9 14.5833 11.5916H9.99166V11.5833Z" fill="#08120F"/>
</svg>
