<svg width="20" height="20" viewBox="0 0 20 20" fill="none" xmlns="http://www.w3.org/2000/svg">
<path d="M14.1663 15.0001C14.6084 15.0001 15.0323 15.1757 15.3449 15.4882C15.6574 15.8008 15.833 16.2247 15.833 16.6667C15.833 17.1088 15.6574 17.5327 15.3449 17.8453C15.0323 18.1578 14.6084 18.3334 14.1663 18.3334C13.7243 18.3334 13.3004 18.1578 12.9878 17.8453C12.6753 17.5327 12.4997 17.1088 12.4997 16.6667C12.4997 15.7417 13.2413 15.0001 14.1663 15.0001ZM0.833008 1.66675H3.55801L4.34134 3.33341H16.6663C16.8874 3.33341 17.0993 3.42121 17.2556 3.57749C17.4119 3.73377 17.4997 3.94573 17.4997 4.16675C17.4997 4.30841 17.458 4.45008 17.3997 4.58341L14.4163 9.97508C14.133 10.4834 13.583 10.8334 12.958 10.8334H6.74967L5.99967 12.1917L5.97467 12.2917C5.97467 12.347 5.99662 12.4 6.03569 12.4391C6.07476 12.4781 6.12775 12.5001 6.18301 12.5001H15.833V14.1667H5.83301C5.39098 14.1667 4.96706 13.9912 4.6545 13.6786C4.34194 13.366 4.16634 12.9421 4.16634 12.5001C4.16634 12.2084 4.24134 11.9334 4.36634 11.7001L5.49967 9.65841L2.49967 3.33341H0.833008V1.66675ZM5.83301 15.0001C6.27504 15.0001 6.69896 15.1757 7.01152 15.4882C7.32408 15.8008 7.49967 16.2247 7.49967 16.6667C7.49967 17.1088 7.32408 17.5327 7.01152 17.8453C6.69896 18.1578 6.27504 18.3334 5.83301 18.3334C5.39098 18.3334 4.96706 18.1578 4.6545 17.8453C4.34194 17.5327 4.16634 17.1088 4.16634 16.6667C4.16634 15.7417 4.90801 15.0001 5.83301 15.0001ZM13.333 9.16675L15.6497 5.00008H5.11634L7.08301 9.16675H13.333Z" fill="white"/>
</svg>
